<?xml version="1.0" encoding="utf-8"?>
<!-- Generator: Adobe Illustrator 16.0.0, SVG Export Plug-In . SVG Version: 6.00 Build 0)  -->
<!DOCTYPE svg PUBLIC "-//W3C//DTD SVG 1.1//EN" "http://www.w3.org/Graphics/SVG/1.1/DTD/svg11.dtd">
<svg version="1.1" id="Layer_1" xmlns="http://www.w3.org/2000/svg" xmlns:xlink="http://www.w3.org/1999/xlink" x="0px" y="0px"
	 width="185px" height="90px" viewBox="122.5 -72.5 185 90" enable-background="new 122.5 -72.5 185 90" xml:space="preserve">
<path fill="#16111C" d="M182.773-37.905h-1.189l-8.78,11.706l-8.604-11.697h-1.289l9.29,12.462l-9.737,12.773v-0.419H139.72v-17.189
	h21.208v-1.002h-21.214v-15.68h22.545v-1.002h-23.536v35.871h24.485l9.584-12.609l9.63,12.609h1.234l-10.225-13.363L182.773-37.905z
	 M204.949-34.69c-1.896-2.472-4.857-3.891-7.973-3.818c-1.222-0.014-2.438,0.177-3.597,0.566c-1.074,0.366-2.075,0.919-2.956,1.634
	c-0.869,0.71-1.623,1.548-2.238,2.486c-0.635,0.97-1.12,2.03-1.438,3.144h-0.1v-7.228h-0.991v34.667h0.991v-16.082h0.104
	c0.517,2.227,1.757,4.219,3.527,5.665c1.756,1.426,3.991,2.139,6.706,2.139c1.621,0.032,3.225-0.338,4.668-1.077
	c1.343-0.71,2.505-1.717,3.398-2.945c0.942-1.306,1.647-2.767,2.085-4.316c0.486-1.686,0.73-3.432,0.723-5.186
	c0.018-1.82-0.234-3.634-0.746-5.381c-0.449-1.545-1.185-2.993-2.166-4.268H204.949z M206.287-20.548
	c-0.353,1.435-0.949,2.799-1.762,4.033c-0.789,1.186-1.832,2.183-3.054,2.917c-1.364,0.787-2.921,1.179-4.495,1.133
	c-3.111,0-5.611-1.081-7.5-3.243c-1.888-2.162-2.832-5.263-2.832-9.304c-0.012-1.631,0.223-3.254,0.697-4.815
	c0.426-1.432,1.107-2.775,2.011-3.965c0.87-1.133,1.981-2.06,3.251-2.713c1.354-0.685,2.854-1.03,4.371-1.006
	c1.51-0.034,3.003,0.312,4.344,1.006c1.23,0.657,2.289,1.595,3.088,2.739c0.836,1.207,1.459,2.548,1.841,3.965
	c0.419,1.545,0.626,3.141,0.614,4.741c0.001,1.519-0.189,3.032-0.566,4.503L206.287-20.548z M219.445-38.007
	c-1.061,0.33-2.057,0.839-2.945,1.507c-0.801,0.609-1.475,1.369-1.982,2.238c-0.501,0.853-0.873,1.774-1.104,2.736h-0.097v-6.378
	h-0.991v25.825h0.991v-14.631c-0.002-1.395,0.198-2.783,0.595-4.121c0.375-1.285,1.001-2.484,1.841-3.526
	c0.849-1.04,1.928-1.867,3.152-2.416c1.428-0.61,2.984-0.861,4.531-0.728v-1.005c-1.348-0.055-2.695,0.114-3.987,0.501H219.445z
	 M243.52-34.288c-0.917-1.28-2.119-2.329-3.512-3.065c-1.59-0.805-3.355-1.202-5.138-1.155c-1.438,0.003-2.86,0.313-4.172,0.906
	c-1.368,0.609-2.589,1.508-3.577,2.634c-1.083,1.251-1.926,2.691-2.484,4.249c-0.656,1.837-0.976,3.777-0.943,5.727
	c-0.012,1.808,0.207,3.609,0.652,5.361c0.381,1.553,1.053,3.019,1.982,4.319c0.895,1.22,2.083,2.195,3.455,2.833
	c1.402,0.67,3.103,0.988,5.098,0.954c2.908,0,5.356-0.829,7.345-2.487c1.988-1.658,3.163-3.994,3.526-7.01h-0.992
	c-0.434,2.844-1.535,4.978-3.305,6.401c-1.77,1.424-3.999,2.133-6.689,2.127c-1.822,0-3.361-0.318-4.617-0.955
	c-1.225-0.606-2.282-1.503-3.081-2.611c-0.827-1.176-1.425-2.498-1.762-3.895c-0.396-1.588-0.604-3.216-0.623-4.852h21.355
	c0.075-1.724-0.097-3.45-0.51-5.126c-0.381-1.567-1.054-3.049-1.983-4.368L243.52-34.288z M224.68-25.791
	c0.07-1.671,0.408-3.321,1-4.886c0.511-1.349,1.259-2.596,2.209-3.682c0.879-0.999,1.963-1.795,3.178-2.336
	c1.229-0.54,2.557-0.814,3.896-0.804c1.51-0.03,3.006,0.29,4.371,0.935c1.229,0.601,2.308,1.472,3.152,2.549
	c0.863,1.11,1.511,2.373,1.908,3.722c0.436,1.459,0.653,2.975,0.646,4.498L224.68-25.791z M265.73-23.596
	c-0.818-0.517-1.709-0.912-2.643-1.172c-0.977-0.283-1.961-0.56-2.953-0.83c-1.391-0.368-2.607-0.686-3.654-0.954
	c-0.988-0.25-1.959-0.569-2.903-0.955c-0.816-0.334-1.528-0.882-2.062-1.586c-0.514-0.688-0.771-1.669-0.771-2.946
	c0.028-0.422,0.095-0.841,0.198-1.252c0.169-0.676,0.492-1.304,0.943-1.835c0.628-0.717,1.409-1.283,2.285-1.657
	c1.025-0.485,2.432-0.728,4.221-0.728c1.129-0.011,2.256,0.124,3.35,0.402c0.949,0.239,1.838,0.675,2.606,1.28
	c0.74,0.596,1.323,1.364,1.699,2.237c0.425,1.052,0.627,2.18,0.595,3.314h0.997c0-2.879-0.828-4.973-2.483-6.279
	c-1.656-1.307-3.908-1.96-6.756-1.96c-1.365-0.035-2.727,0.169-4.021,0.604c-0.986,0.34-1.898,0.869-2.682,1.558
	c-0.654,0.578-1.164,1.3-1.49,2.11c-0.279,0.704-0.425,1.453-0.431,2.209c0,1.409,0.249,2.532,0.745,3.37
	c0.549,0.88,1.361,1.564,2.322,1.955c0.805,0.364,1.635,0.667,2.484,0.906c0.925,0.265,2.001,0.547,3.229,0.85
	c1.096,0.265,2.172,0.531,3.229,0.799c0.978,0.236,1.92,0.598,2.805,1.076c0.779,0.427,1.455,1.02,1.982,1.736
	c0.516,0.704,0.773,1.626,0.773,2.764c0.031,0.995-0.238,1.975-0.771,2.815c-0.504,0.764-1.172,1.407-1.953,1.883
	c-0.824,0.495-1.724,0.849-2.663,1.048c-0.937,0.213-1.894,0.323-2.854,0.326c-3.021,0-5.33-0.678-6.928-2.033
	c-1.598-1.356-2.397-3.484-2.399-6.384h-0.991c0,3.248,0.869,5.627,2.605,7.137c1.737,1.511,4.313,2.266,7.725,2.266
	c1.111-0.003,2.219-0.13,3.302-0.379c1.059-0.232,2.067-0.651,2.979-1.238c0.871-0.563,1.602-1.319,2.135-2.209
	c0.572-1.01,0.854-2.159,0.813-3.319c0-1.236-0.239-2.24-0.72-3.011c-0.48-0.774-1.129-1.43-1.896-1.92L265.73-23.596z
	 M290.609-21.687c-0.479-0.769-1.125-1.421-1.889-1.909c-0.814-0.519-1.7-0.917-2.629-1.181c-0.977-0.284-1.961-0.56-2.954-0.83
	c-1.394-0.368-2.611-0.687-3.653-0.955c-0.99-0.25-1.963-0.569-2.908-0.955c-0.817-0.334-1.529-0.882-2.063-1.586
	c-0.514-0.684-0.771-1.663-0.771-2.937c0.028-0.425,0.095-0.847,0.198-1.26c0.17-0.675,0.492-1.302,0.943-1.833
	c0.627-0.718,1.408-1.285,2.285-1.66c1.025-0.485,2.432-0.728,4.221-0.728c1.129-0.011,2.256,0.124,3.35,0.402
	c0.949,0.237,1.837,0.671,2.606,1.274c0.74,0.596,1.323,1.364,1.699,2.237c0.425,1.052,0.627,2.18,0.595,3.314h0.997
	c0-2.877-0.829-4.97-2.486-6.276c-1.658-1.307-3.909-1.958-6.755-1.954c-1.365-0.036-2.727,0.167-4.021,0.6
	c-0.986,0.348-1.895,0.885-2.674,1.581c-0.654,0.578-1.165,1.3-1.49,2.11c-0.285,0.702-0.437,1.451-0.447,2.209
	c0,1.409,0.248,2.532,0.744,3.37c0.552,0.875,1.365,1.555,2.326,1.94c0.804,0.364,1.634,0.667,2.483,0.906
	c0.925,0.265,2.001,0.547,3.229,0.85c1.095,0.265,2.172,0.532,3.229,0.802c0.977,0.236,1.92,0.598,2.804,1.076
	c0.779,0.427,1.456,1.02,1.982,1.736c0.516,0.704,0.773,1.625,0.773,2.764c0.03,0.993-0.237,1.973-0.771,2.813
	c-0.508,0.765-1.178,1.408-1.963,1.883c-0.82,0.497-1.719,0.854-2.656,1.057c-0.938,0.213-1.895,0.322-2.855,0.326
	c-3.021,0-5.332-0.678-6.934-2.034c-1.602-1.356-2.403-3.491-2.407-6.407h-0.991c0,3.248,0.869,5.627,2.605,7.137
	c1.737,1.511,4.313,2.266,7.724,2.266c1.11-0.003,2.218-0.13,3.3-0.379c1.059-0.23,2.067-0.647,2.979-1.232
	c0.872-0.565,1.604-1.324,2.136-2.217c0.573-1.008,0.857-2.155,0.821-3.314c0-1.233-0.239-2.234-0.72-3.002L290.609-21.687z"/>
</svg>
